<svg xmlns="http://www.w3.org/2000/svg" viewBox="0 0 110.23 110.23"><defs><style>.cls-1{fill:none;}</style></defs><title>Asset 6</title><g id="Layer_2" data-name="Layer 2"><g id="Num2"><path d="M32.75,52.16c-.49,0-.7-.21-.7-.7V38.86c0-.49.21-.7.7-.7h6.48c2.92,0,3.83,1.32,3.83,3.25v.89c0,1.09-.27,1.87-1.09,2.22a2.58,2.58,0,0,1,2.35,2.82v4.12c0,.49-.21.7-.7.7h-3c-.49,0-.7-.21-.7-.7v-3c0-.59-.2-.84-.74-.84H36.45v3.81c0,.49-.22.7-.7.7Zm3.7-8H37.9c.69,0,.86-.39.86-.92v-.66c0-.52-.17-.91-.86-.91H36.45Z"/><path d="M49.2,52.16c-.48,0-.7-.21-.7-.7V38.86c0-.49.22-.7.7-.7h9c.48,0,.7.21.7.7v2.27c0,.49-.22.7-.7.7H52.86v1.5h3.79c.49,0,.7.22.7.7v2.08c0,.49-.21.7-.7.7H52.86v1.68h5.37c.48,0,.7.21.7.7v2.27c0,.49-.22.7-.7.7Z"/><path d="M63.92,52.16c-.48,0-.7-.21-.7-.7V38.86c0-.49.22-.7.7-.7h9c.49,0,.7.21.7.7v2.27c0,.49-.21.7-.7.7H67.58v1.5h3.79c.49,0,.7.22.7.7v2.08c0,.49-.21.7-.7.7H67.58v1.68H73c.49,0,.7.21.7.7v2.27c0,.49-.21.7-.7.7Z"/><path d="M32.52,72.22c-.48,0-.7-.21-.7-.7V58.92c0-.49.22-.7.7-.7h3.13a.92.92,0,0,1,.9.58L38.3,62c.14.23.19.33.35.33h.17c.16,0,.22-.1.35-.33l1.74-3.17a.9.9,0,0,1,.89-.58H45c.49,0,.7.21.7.7v12.6c0,.49-.21.7-.7.7H42c-.51,0-.7-.21-.7-.7V64.67l-1.15,2.12a1,1,0,0,1-1,.63H38.3a1,1,0,0,1-1-.63l-1.15-2.12v6.85c0,.49-.21.7-.7.7Z"/><path d="M56.25,72.51c-4.82,0-6-1.59-6-4V58.92c0-.49.21-.7.7-.7H54c.49,0,.7.21.7.7v8.87c0,.52.24.91,1.6.91s1.61-.39,1.61-.91V58.92c0-.49.2-.7.7-.7h3c.49,0,.7.21.7.7v9.63C62.26,70.92,61.07,72.51,56.25,72.51Z"/><path d="M72.76,72.51c-4.82,0-6-1.59-6-4V58.92c0-.49.21-.7.7-.7h3c.49,0,.7.21.7.7v8.87c0,.52.24.91,1.6.91s1.61-.39,1.61-.91V58.92c0-.49.2-.7.7-.7h3c.49,0,.7.21.7.7v9.63C78.77,70.92,77.58,72.51,72.76,72.51Z"/><path class="cls-1" d="M18.4,91.83H91.83V18.4H18.4Zm5.93-67.19H85.79V86.1H24.33Z"/><path d="M0,4V106.23a4,4,0,0,0,4,4H106.23a4,4,0,0,0,4-4V4a4,4,0,0,0-4-4H4A4,4,0,0,0,0,4ZM87.83,91.83H22.4a4,4,0,0,1-4-4V22.4a4,4,0,0,1,4-4H87.83a4,4,0,0,1,4,4V87.83A4,4,0,0,1,87.83,91.83Z"/><path d="M85.79,84.56V26.18a1.54,1.54,0,0,0-1.54-1.54H25.88a1.54,1.54,0,0,0-1.55,1.54V84.56a1.54,1.54,0,0,0,1.55,1.54H84.25a1.54,1.54,0,0,0,1.54-1.54ZM81.17,83H29a1.54,1.54,0,0,1-1.54-1.54V29.26A1.54,1.54,0,0,1,29,27.72H81.17a1.54,1.54,0,0,1,1.54,1.54V81.48A1.54,1.54,0,0,1,81.17,83Z"/></g></g></svg>